<?xml version="1.0" encoding="UTF-8"?><svg xmlns="http://www.w3.org/2000/svg" xmlns:xlink="http://www.w3.org/1999/xlink" width="1008" zoomAndPan="magnify" viewBox="0 0 1008 1295.99994" height="1295.99994" preserveAspectRatio="xMidYMid meet" version="1.0"><defs><clipPath id="clip-0"><path d="M 147.640625 625 L 602 625 L 602 741 L 147.640625 741 Z M 147.640625 625 " clip-rule="nonzero"/></clipPath><clipPath id="clip-1"><path d="M 844 632 L 860.140625 632 L 860.140625 636 L 844 636 Z M 844 632 " clip-rule="nonzero"/></clipPath><clipPath id="clip-2"><path d="M 710 175.5625 L 727 175.5625 L 727 206 L 710 206 Z M 710 175.5625 " clip-rule="nonzero"/></clipPath><clipPath id="clip-3"><path d="M 269 965 L 322 965 L 322 1065.8125 L 269 1065.8125 Z M 269 965 " clip-rule="nonzero"/></clipPath></defs><rect x="-100.8" width="1209.6" fill="rgb(100%, 100%, 100%)" y="-129.599994" height="1555.199927" fill-opacity="1"/><rect x="-100.8" width="1209.6" fill="rgb(100%, 100%, 100%)" y="-129.599994" height="1555.199927" fill-opacity="1"/><rect x="-100.8" width="1209.6" fill="rgb(100%, 100%, 100%)" y="-129.599994" height="1555.199927" fill-opacity="1"/><path fill="rgb(0%, 0%, 0%)" d="M 621.875 573.003906 Z M 670.042969 572.394531 C 670.042969 558.800781 658.421875 550.242188 656.265625 549.753906 C 655.523438 549.664062 650.011719 549.515625 612.589844 551.402344 C 618.058594 558.859375 622.367188 565.84375 624.984375 571.457031 C 626.78125 574.949219 627.0625 581.914062 625.800781 592.179688 L 652.65625 594.097656 C 663.238281 591.914062 668.722656 582.226562 669.6875 576.539062 C 669.925781 575.113281 670.042969 573.730469 670.042969 572.394531 Z M 602.40625 548.269531 C 602.40625 547.777344 602.511719 547.289062 602.71875 546.828125 C 603.269531 545.652344 604.414062 544.878906 605.707031 544.804688 C 653.933594 542.3125 656.503906 542.757812 657.46875 542.917969 C 663.519531 543.976562 679.898438 557.984375 676.523438 577.710938 C 675.171875 585.613281 667.917969 598.332031 653.488281 600.992188 C 653.207031 601.050781 652.90625 601.066406 652.609375 601.035156 L 621.625 598.835938 C 620.660156 598.761719 619.78125 598.300781 619.171875 597.558594 C 618.5625 596.800781 618.296875 595.835938 618.445312 594.871094 C 620.210938 582.734375 619.75 576.390625 618.816406 574.636719 C 618.785156 574.578125 618.742188 574.519531 618.726562 574.457031 C 615.722656 567.980469 610.195312 559.4375 603.136719 550.390625 C 602.660156 549.785156 602.40625 549.027344 602.40625 548.269531 " fill-opacity="1" fill-rule="nonzero"/><g clip-path="url(#clip-0)"><path fill="rgb(0%, 0%, 0%)" d="M 597.578125 723.921875 L 597.578125 723.933594 Z M 552.398438 637.328125 Z M 552.25 637.253906 Z M 147.640625 725.703125 C 147.640625 723.996094 148.875 722.523438 150.613281 722.269531 C 153.554688 721.855469 391.964844 696.378906 394.195312 696.140625 L 397.199219 695.828125 C 416.28125 693.824219 430.265625 692.707031 436.359375 696.675781 C 437.355469 697.328125 438.707031 698.441406 440.578125 700.003906 C 448.648438 706.6875 465.441406 720.621094 486.8125 724.230469 C 489.933594 724.765625 493.992188 725.582031 498.671875 726.535156 C 519.910156 730.886719 559.457031 738.953125 574.632812 729.726562 C 575.613281 729.121094 576.59375 728.570312 577.542969 728.050781 C 564.851562 726.207031 549.320312 721.394531 531.175781 713.640625 C 530.460938 713.328125 529.898438 713.089844 529.496094 712.925781 C 525.304688 711.203125 521.457031 704.324219 520.726562 697.253906 C 520.132812 691.535156 521.085938 680.644531 534.042969 671.910156 C 534.105469 671.867188 534.179688 671.820312 534.238281 671.792969 C 534.550781 671.597656 534.890625 671.449219 535.261719 671.316406 C 532.78125 666.324219 532.171875 659.222656 533.953125 652.644531 C 535.722656 646.136719 539.585938 641.277344 544.847656 638.753906 C 543.289062 636.050781 542.054688 632.691406 541.328125 629.527344 C 540.894531 627.65625 542.054688 625.800781 543.925781 625.367188 C 545.785156 624.9375 547.65625 626.097656 548.089844 627.96875 C 549.394531 633.644531 551.671875 636.777344 552.367188 637.296875 C 553.734375 637.921875 554.554688 639.363281 554.390625 640.863281 C 554.195312 642.40625 553.007812 643.640625 551.476562 643.878906 C 544.253906 645.035156 541.59375 651.007812 540.644531 654.46875 C 538.828125 661.183594 540.464844 668.269531 543.09375 670.441406 C 543.289062 670.589844 543.660156 670.871094 544.359375 671.257812 C 545.769531 672.058594 546.453125 673.722656 545.976562 675.28125 C 545.515625 676.828125 544.03125 677.867188 542.410156 677.734375 C 539.1875 677.511719 537.996094 677.734375 537.699219 677.808594 C 528.753906 683.945312 527.238281 691.03125 527.578125 695.902344 C 527.980469 701.949219 531.191406 706.046875 532.15625 706.523438 C 532.558594 706.6875 533.152344 706.941406 533.910156 707.265625 C 557.183594 717.207031 575.777344 722.136719 589.136719 721.957031 C 591.664062 721.929688 594.039062 721.5 596.417969 720.652344 C 598.113281 720.042969 600 720.84375 600.742188 722.492188 C 601.457031 724.082031 600.878906 725.941406 599.421875 726.859375 C 599.347656 726.921875 599.242188 726.964844 599.167969 727.011719 C 598.261719 727.5 597.058594 727.871094 595.230469 728.421875 C 591.453125 729.550781 585.167969 731.4375 578.242188 735.640625 C 560.734375 746.292969 521.027344 738.179688 497.292969 733.339844 C 492.65625 732.386719 488.671875 731.585938 485.65625 731.066406 C 462.457031 727.144531 444.679688 712.40625 436.148438 705.335938 C 434.589844 704.042969 433.238281 702.914062 432.570312 702.484375 C 428.066406 699.558594 409.917969 701.472656 397.910156 702.734375 L 394.910156 703.046875 C 392.769531 703.269531 155.648438 728.613281 151.578125 729.148438 C 149.675781 729.386719 147.9375 728.066406 147.667969 726.179688 C 147.65625 726.015625 147.640625 725.851562 147.640625 725.703125 " fill-opacity="1" fill-rule="nonzero"/></g><path fill="rgb(0%, 0%, 0%)" d="M 152.738281 547.792969 C 152.738281 547.6875 152.738281 547.585938 152.753906 547.480469 C 152.914062 545.5625 154.609375 544.167969 156.511719 544.332031 L 443.492188 569.941406 C 445.394531 570.105469 446.820312 571.785156 446.640625 573.699219 C 446.464844 575.601562 444.785156 577.011719 442.867188 576.851562 L 155.886719 551.238281 C 154.089844 551.089844 152.738281 549.574219 152.738281 547.792969 " fill-opacity="1" fill-rule="nonzero"/><path fill="rgb(0%, 0%, 0%)" d="M 537.789062 678.015625 C 529.050781 684.03125 527.519531 690.925781 527.789062 695.679688 C 528.113281 701.605469 531.160156 705.75 532.261719 706.332031 C 532.648438 706.480469 533.242188 706.730469 534 707.058594 C 557.242188 716.980469 575.789062 721.929688 589.136719 721.734375 C 600 721.585938 606.078125 714.21875 608.203125 711.054688 C 612.988281 703.9375 610.566406 696.378906 609.035156 693.019531 C 586.121094 691.757812 552.933594 683.78125 541.625 677.914062 C 539.097656 677.777344 538.085938 677.941406 537.789062 678.015625 Z M 520.371094 694.742188 C 520.371094 688.652344 522.585938 679.367188 533.925781 671.71875 C 533.984375 671.671875 534.058594 671.628906 534.132812 671.597656 C 535.871094 670.574219 538.503906 670.277344 542.917969 670.601562 C 543.464844 670.648438 544 670.796875 544.460938 671.0625 C 553.4375 676.113281 587.738281 684.863281 611.472656 685.742188 C 612.722656 685.800781 613.867188 686.46875 614.503906 687.539062 C 615.398438 689.023438 622.917969 702.410156 614.386719 715.109375 C 611.578125 719.300781 603.597656 728.925781 589.242188 729.121094 C 574.855469 729.3125 555.296875 724.1875 531.085938 713.847656 C 530.375 713.535156 529.808594 713.296875 529.421875 713.136719 C 525.15625 711.382812 521.234375 704.414062 520.503906 697.285156 C 520.414062 696.511719 520.371094 695.664062 520.371094 694.742188 " fill-opacity="1" fill-rule="nonzero"/><path fill="rgb(0%, 0%, 0%)" d="M 550.71875 644.25 C 544.535156 645.601562 541.949219 650.535156 540.867188 654.53125 C 539.050781 661.15625 540.671875 668.152344 543.242188 670.261719 C 549.277344 675.253906 593.507812 686.707031 617.773438 685.769531 C 628.578125 684.628906 638.507812 678.269531 639.652344 675.980469 C 640.4375 674.257812 642.105469 664.363281 641.375 654.886719 C 632.933594 654.78125 621.015625 653.757812 611.457031 652.792969 C 608.367188 656.847656 602.78125 659.179688 595.941406 659.136719 C 589.714844 659.089844 582.703125 653.105469 578.882812 648.882812 C 572 647.933594 555.964844 645.675781 550.71875 644.25 Z M 532.707031 660.398438 C 532.707031 657.8125 533.046875 655.152344 533.746094 652.582031 C 536.125 643.878906 542.171875 638.128906 550.347656 636.820312 C 551.015625 636.71875 551.699219 636.792969 552.339844 637.042969 C 553.632812 637.535156 562.636719 639.242188 581.246094 641.753906 C 582.152344 641.871094 583 642.332031 583.578125 643.046875 C 587.5 647.742188 593.195312 651.738281 595.988281 651.75 C 601.085938 651.78125 604.890625 650.132812 606.167969 647.339844 C 606.820312 645.898438 608.324219 645.035156 609.898438 645.199219 C 625.160156 646.804688 636.871094 647.605469 643.769531 647.519531 L 644.125 647.472656 L 644.304688 647.457031 C 646.265625 647.25 648.046875 648.648438 648.332031 650.609375 C 649.980469 662.238281 647.898438 675.964844 646.265625 679.265625 C 643.589844 684.628906 630.851562 691.847656 618.414062 693.125 C 618.339844 693.125 618.265625 693.140625 618.191406 693.140625 C 597.890625 693.972656 548.488281 684.167969 538.53125 675.953125 C 534.816406 672.890625 532.707031 666.875 532.707031 660.398438 " fill-opacity="1" fill-rule="nonzero"/><path fill="rgb(0%, 0%, 0%)" d="M 552.53125 637.148438 Z M 567.660156 600.410156 C 562.921875 611.625 556.589844 621.492188 548.816406 629.796875 C 550.003906 633.820312 551.683594 636.449219 552.441406 637.089844 C 553.871094 637.535156 560.410156 638.796875 573.070312 640.609375 C 568.40625 632.691406 564.066406 621.492188 569.015625 600.351562 C 568.554688 600.367188 568.105469 600.382812 567.660156 600.410156 Z M 541.015625 628.742188 C 541.015625 627.789062 541.386719 626.855469 542.070312 626.15625 C 550.347656 617.734375 556.960938 607.40625 561.703125 595.492188 C 562.222656 594.1875 563.457031 593.28125 564.867188 593.191406 C 567.394531 593 570.367188 592.894531 573.738281 592.820312 C 574.914062 592.804688 576.015625 593.324219 576.726562 594.246094 C 577.457031 595.183594 577.691406 596.386719 577.367188 597.515625 C 570.261719 622.796875 576.683594 632.738281 581.839844 640.714844 C 582.300781 641.414062 582.878906 642.214844 583.578125 643.046875 C 584.558594 644.21875 584.722656 645.867188 583.980469 647.191406 C 583.238281 648.527344 581.765625 649.269531 580.265625 649.0625 C 573.949219 648.214844 553.066406 645.320312 549.53125 643.878906 C 545.636719 642.273438 542.5 635.542969 541.117188 629.585938 C 541.058594 629.304688 541.015625 629.023438 541.015625 628.742188 " fill-opacity="1" fill-rule="nonzero"/><path fill="rgb(0%, 0%, 0%)" d="M 624.625 601.4375 C 623.628906 606.960938 622.410156 612.308594 621.238281 616.1875 C 621.207031 616.261719 621.179688 616.351562 621.148438 616.441406 C 617.847656 625.054688 614.476562 638.902344 614.074219 645.484375 L 614.074219 645.632812 C 627.285156 646.953125 637.511719 647.59375 643.769531 647.519531 C 647.230469 647.457031 651.242188 644.308594 655.0625 638.632812 C 661.527344 629.023438 664.484375 616.691406 663.503906 614.183594 C 661.1875 608.820312 657.085938 605.90625 648.878906 603.796875 C 646.441406 603.1875 634.109375 601.808594 624.625 601.4375 Z M 605.828125 648.871094 C 605.828125 648.351562 605.945312 647.828125 606.167969 647.339844 C 606.464844 646.671875 606.660156 645.882812 606.703125 645.035156 C 607.148438 637.757812 610.640625 623.273438 614.207031 613.929688 C 615.5 609.605469 616.867188 603.324219 617.863281 597.082031 C 618.160156 595.285156 619.738281 593.964844 621.566406 593.976562 C 631.476562 594.097656 647.203125 595.761719 650.707031 596.667969 C 661.15625 599.339844 667.011719 603.707031 670.28125 611.253906 C 672.957031 617.421875 667.890625 632.410156 661.691406 641.992188 C 656.28125 650.339844 650.113281 654.796875 643.871094 654.886719 C 634.792969 655.019531 619.960938 653.683594 609.140625 652.554688 C 607.953125 652.421875 606.910156 651.738281 606.316406 650.695312 C 605.988281 650.148438 605.828125 649.507812 605.828125 648.871094 " fill-opacity="1" fill-rule="nonzero"/><path fill="rgb(0%, 0%, 0%)" d="M 608.382812 660.117188 C 605.839844 656.253906 605.738281 656.714844 602.867188 653.105469 C 600.953125 650.683594 597.578125 654.113281 599.480469 656.503906 C 602.097656 659.804688 601.902344 659.03125 604.222656 662.535156 C 605.929688 665.105469 610.089844 662.699219 608.382812 660.117188 " fill-opacity="1" fill-rule="nonzero"/><path fill="rgb(0%, 0%, 0%)" d="M 618.890625 662.746094 C 615.636719 658.082031 612.320312 653.460938 608.945312 648.882812 C 607.121094 646.417969 602.957031 648.808594 604.785156 651.304688 C 608.175781 655.882812 611.488281 660.5 614.726562 665.167969 C 616.496094 667.707031 620.660156 665.285156 618.890625 662.746094 " fill-opacity="1" fill-rule="nonzero"/><path fill="rgb(0%, 0%, 0%)" d="M 560.558594 652.0625 C 558.015625 648.214844 555.296875 644.488281 552.429688 640.878906 C 550.496094 638.457031 547.121094 641.886719 549.023438 644.28125 C 551.640625 647.578125 554.09375 650.980469 556.394531 654.484375 C 558.105469 657.070312 562.265625 654.648438 560.558594 652.0625 " fill-opacity="1" fill-rule="nonzero"/><path fill="rgb(0%, 0%, 0%)" d="M 571.078125 654.707031 C 567.824219 650.027344 564.511719 645.421875 561.121094 640.832031 C 559.292969 638.367188 555.132812 640.773438 556.976562 643.253906 C 560.347656 647.828125 563.664062 652.449219 566.917969 657.128906 C 568.671875 659.65625 572.847656 657.25 571.078125 654.707031 " fill-opacity="1" fill-rule="nonzero"/><path fill="rgb(0%, 0%, 0%)" d="M 628.042969 662.015625 C 624.761719 658.289062 621.699219 654.382812 618.859375 650.28125 C 617.105469 647.753906 612.945312 650.148438 614.714844 652.703125 C 617.773438 657.128906 621.089844 661.378906 624.65625 665.417969 C 626.707031 667.75 630.082031 664.335938 628.042969 662.015625 " fill-opacity="1" fill-rule="nonzero"/><path fill="rgb(0%, 0%, 0%)" d="M 638.597656 663.800781 C 635.519531 660.085938 632.578125 656.269531 629.769531 652.347656 C 627.984375 649.835938 623.808594 652.242188 625.605469 654.753906 C 628.652344 659.03125 631.847656 663.175781 635.207031 667.203125 C 637.183594 669.59375 640.558594 666.160156 638.597656 663.800781 " fill-opacity="1" fill-rule="nonzero"/><path fill="rgb(0%, 0%, 0%)" d="M 539.039062 727.855469 C 540.671875 724.261719 542.160156 720.59375 543.464844 716.863281 C 544.492188 713.921875 539.824219 712.6875 538.816406 715.601562 C 537.640625 718.941406 536.332031 722.226562 534.863281 725.449219 C 533.582031 728.242188 537.746094 730.664062 539.039062 727.855469 " fill-opacity="1" fill-rule="nonzero"/><path fill="rgb(0%, 0%, 0%)" d="M 632.058594 592.847656 C 629.886719 588.914062 627.539062 585.09375 625.027344 581.394531 C 623.394531 578.972656 619.886719 581.839844 621.503906 584.234375 C 623.808594 587.621094 625.933594 591.113281 627.925781 594.691406 C 629.324219 597.230469 633.453125 595.390625 632.058594 592.847656 " fill-opacity="1" fill-rule="nonzero"/><path fill="rgb(0%, 0%, 0%)" d="M 640.484375 592.789062 C 638.804688 589.894531 637.035156 587.039062 635.164062 584.261719 C 633.527344 581.855469 630.019531 584.707031 631.640625 587.117188 C 633.289062 589.566406 634.867188 592.078125 636.351562 594.632812 C 637.792969 597.128906 641.941406 595.300781 640.484375 592.789062 " fill-opacity="1" fill-rule="nonzero"/><path fill="rgb(0%, 0%, 0%)" d="M 649.921875 592.226562 C 648.121094 589.523438 646.457031 586.742188 644.925781 583.875 C 643.558594 581.320312 639.429688 583.148438 640.796875 585.71875 C 642.519531 588.925781 644.390625 592.046875 646.414062 595.0625 C 648.035156 597.484375 651.527344 594.632812 649.921875 592.226562 " fill-opacity="1" fill-rule="nonzero"/><path fill="rgb(0%, 0%, 0%)" d="M 659.285156 591.808594 C 657.484375 589.105469 657.484375 589.148438 655.953125 586.285156 C 654.585938 583.726562 650.457031 585.570312 651.824219 588.140625 C 653.53125 591.347656 653.742188 591.632812 655.761719 594.660156 C 657.382812 597.082031 660.890625 594.214844 659.285156 591.808594 " fill-opacity="1" fill-rule="nonzero"/><path fill="rgb(0%, 0%, 0%)" d="M 624.105469 603.292969 C 626.410156 607.480469 628.90625 611.539062 631.582031 615.488281 C 633.320312 618.042969 637.050781 615.015625 635.328125 612.457031 C 632.875 608.847656 630.601562 605.148438 628.503906 601.332031 C 627.003906 598.644531 622.605469 600.589844 624.105469 603.292969 " fill-opacity="1" fill-rule="nonzero"/><path fill="rgb(0%, 0%, 0%)" d="M 634.835938 602.996094 C 637.140625 607.171875 639.636719 611.226562 642.3125 615.175781 C 644.050781 617.746094 647.78125 614.703125 646.058594 612.160156 C 643.605469 608.550781 641.332031 604.835938 639.234375 601.035156 C 637.75 598.332031 633.335938 600.277344 634.835938 602.996094 " fill-opacity="1" fill-rule="nonzero"/><path fill="rgb(0%, 0%, 0%)" d="M 617.761719 611.6875 C 619.542969 614.761719 621.429688 617.792969 623.421875 620.75 C 625.160156 623.316406 628.875 620.273438 627.167969 617.71875 C 625.398438 615.101562 623.734375 612.445312 622.160156 609.710938 C 620.613281 607.066406 616.214844 608.996094 617.761719 611.6875 " fill-opacity="1" fill-rule="nonzero"/><path fill="rgb(0%, 0%, 0%)" d="M 613.792969 621.964844 C 615.722656 624.832031 617.476562 627.804688 619.113281 630.851562 C 620.554688 633.570312 624.953125 631.621094 623.496094 628.890625 C 621.683594 625.472656 619.675781 622.160156 617.539062 618.949219 C 615.8125 616.367188 612.082031 619.410156 613.792969 621.964844 " fill-opacity="1" fill-rule="nonzero"/><path fill="rgb(0%, 0%, 0%)" d="M 612.066406 634.429688 C 613.984375 637.296875 613.984375 637.253906 615.605469 640.296875 C 617.0625 643.03125 621.460938 641.070312 620.003906 638.335938 C 618.191406 634.921875 617.953125 634.625 615.8125 631.398438 C 614.089844 628.816406 610.359375 631.875 612.066406 634.429688 " fill-opacity="1" fill-rule="nonzero"/><path fill="rgb(0%, 0%, 0%)" d="M 298.796875 696.75 C 298.664062 697.789062 299.230469 698.738281 300.089844 699.363281 C 305.933594 703.640625 312.25 707.964844 312.25 707.964844 C 312.25 707.964844 312.324219 708.023438 312.367188 708.054688 C 312.441406 708.082031 320.554688 707.117188 320.554688 707.117188 C 320.554688 707.117188 306.304688 696.867188 302.824219 694.742188 C 301.175781 693.734375 299.019531 694.816406 298.796875 696.75 " fill-opacity="1" fill-rule="nonzero"/><path fill="rgb(0%, 0%, 0%)" d="M 258.242188 585.464844 C 259.011719 584.1875 258.613281 582.539062 257.363281 581.765625 C 245.847656 574.695312 233.257812 567.046875 217.742188 557.671875 C 213.921875 555.367188 210.105469 553.066406 206.285156 550.765625 L 202.121094 554.386719 C 205.257812 556.273438 211.84375 560.375 214.976562 562.277344 C 230.464844 571.636719 243.039062 579.285156 254.539062 586.34375 C 255.804688 587.117188 257.46875 586.730469 258.242188 585.464844 " fill-opacity="1" fill-rule="nonzero"/><path fill="rgb(0%, 0%, 0%)" d="M 312.085938 688.25 C 311.816406 688.652344 311.699219 689.113281 311.683594 689.574219 C 311.652344 690.496094 312.113281 691.417969 312.960938 691.9375 C 320.585938 696.628906 328.179688 701.28125 335.730469 705.871094 C 338.730469 705.5 341.601562 705.140625 344.320312 704.816406 C 334.882812 699.082031 325.355469 693.273438 315.769531 687.359375 C 314.507812 686.589844 312.859375 686.988281 312.085938 688.25 " fill-opacity="1" fill-rule="nonzero"/><path fill="rgb(0%, 0%, 0%)" d="M 195.984375 567.089844 C 197.25 567.847656 198.898438 567.445312 199.671875 566.183594 C 200.445312 564.921875 200.042969 563.273438 198.777344 562.5 C 194.75 560.046875 182.757812 552.042969 177.46875 548.773438 L 173.023438 552.414062 C 177.601562 555.25 191.957031 564.625 195.984375 567.089844 " fill-opacity="1" fill-rule="nonzero"/><path fill="rgb(0%, 0%, 0%)" d="M 301.59375 565.707031 L 323.542969 579.269531 C 324.804688 580.058594 326.472656 579.65625 327.242188 578.410156 C 328.015625 577.132812 327.628906 575.484375 326.367188 574.710938 L 304.414062 561.148438 C 302.960938 560.242188 301.503906 559.335938 300.03125 558.445312 L 299.332031 564.3125 C 300.089844 564.773438 300.835938 565.246094 301.59375 565.707031 " fill-opacity="1" fill-rule="nonzero"/><path fill="rgb(0%, 0%, 0%)" d="M 413.324219 569.925781 C 422.507812 575.394531 431.707031 580.847656 440.9375 586.136719 C 442.214844 586.878906 443.847656 586.445312 444.589844 585.152344 C 445.335938 583.875 444.890625 582.226562 443.609375 581.484375 C 437.859375 578.1875 432.121094 574.828125 426.371094 571.441406 L 413.324219 569.925781 " fill-opacity="1" fill-rule="nonzero"/><path fill="rgb(0%, 0%, 0%)" d="M 249.828125 565.78125 C 257.570312 570.582031 265.300781 575.378906 273.042969 580.164062 C 274.304688 580.949219 275.96875 580.5625 276.742188 579.285156 C 277.515625 578.039062 277.128906 576.375 275.867188 575.601562 C 268.125 570.820312 260.394531 566.019531 252.667969 561.222656 C 249.011719 558.949219 245.355469 556.660156 241.699219 554.386719 L 233.273438 554.878906 C 236.214844 556.722656 246.886719 563.957031 249.828125 565.78125 " fill-opacity="1" fill-rule="nonzero"/><path fill="rgb(0%, 0%, 0%)" d="M 422.609375 585.851562 C 423.382812 584.574219 422.96875 582.925781 421.691406 582.167969 C 413.710938 577.355469 406.054688 572.734375 398.667969 568.234375 L 385.960938 566.761719 C 396.367188 573.136719 407.304688 579.777344 418.925781 586.773438 C 420.203125 587.53125 421.851562 587.117188 422.609375 585.851562 " fill-opacity="1" fill-rule="nonzero"/><path fill="rgb(0%, 0%, 0%)" d="M 273.859375 557.96875 L 262.9375 558.132812 C 265.613281 559.765625 278.511719 567.105469 281.1875 568.753906 L 291.054688 574.800781 C 292.320312 575.574219 293.96875 575.1875 294.757812 573.921875 C 295.515625 572.660156 295.128906 571.011719 293.863281 570.222656 L 283.996094 564.164062 C 280.609375 562.097656 277.234375 560.035156 273.859375 557.96875 " fill-opacity="1" fill-rule="nonzero"/><path fill="rgb(0%, 0%, 0%)" d="M 203.015625 570.9375 C 202.746094 571.351562 202.628906 571.8125 202.613281 572.273438 C 202.582031 573.195312 203.042969 574.117188 203.890625 574.636719 L 213.0625 580.519531 C 214.324219 581.292969 215.972656 580.90625 216.746094 579.644531 C 217.535156 578.378906 217.148438 576.730469 215.886719 575.945312 L 206.699219 570.074219 C 205.453125 569.289062 203.789062 569.691406 203.015625 570.9375 " fill-opacity="1" fill-rule="nonzero"/><path fill="rgb(0%, 0%, 0%)" d="M 577.605469 590.960938 Z M 577.605469 590.960938 L 577.605469 590.949219 Z M 577.605469 590.949219 L 577.589844 590.949219 Z M 439.71875 573.402344 C 439.71875 571.992188 440.5625 570.671875 441.960938 570.148438 C 455.367188 565.144531 484.035156 551.253906 509.34375 538.984375 C 526.777344 530.53125 543.242188 522.554688 552.207031 518.71875 C 559.457031 515.601562 566.976562 512.375 576.355469 515.378906 C 586.609375 518.644531 614.921875 549.8125 624.984375 571.457031 C 629.203125 579.65625 623.867188 606.695312 621.03125 616.128906 L 620.941406 616.351562 C 617.640625 624.996094 614.253906 638.871094 613.851562 645.46875 C 613.347656 653.699219 606.316406 658.972656 595.941406 658.910156 C 588.808594 658.851562 579.683594 650.5625 575.820312 644.589844 C 569.996094 635.574219 562.027344 623.242188 571.242188 592.910156 L 571.242188 592.863281 C 571.152344 592.390625 571.066406 591.972656 570.976562 591.601562 C 570.542969 592.523438 570.039062 593.726562 569.445312 595.316406 C 554.71875 635.367188 522.480469 654.097656 498.761719 654.558594 C 489.207031 654.753906 482.949219 653.5625 478.386719 652.6875 C 476.246094 652.285156 474.554688 651.960938 473.214844 651.914062 C 471.296875 651.871094 469.855469 650.25 469.855469 648.351562 C 469.902344 646.433594 471.507812 644.933594 473.421875 644.992188 C 475.3125 645.050781 477.347656 645.421875 479.695312 645.867188 C 483.960938 646.6875 489.785156 647.800781 498.613281 647.621094 C 520.058594 647.207031 549.320312 629.914062 562.933594 592.921875 C 565.371094 586.28125 567.839844 581.945312 571.882812 582.273438 C 576.324219 582.628906 577.457031 588.421875 578.050781 591.542969 C 578.078125 591.707031 578.109375 591.855469 578.140625 591.972656 C 578.347656 592.640625 578.363281 593.371094 578.152344 594.082031 C 569.460938 621.964844 576.222656 632.425781 581.644531 640.832031 C 585.140625 646.226562 592.496094 651.945312 595.988281 651.972656 C 598.453125 651.988281 606.539062 651.542969 606.925781 645.050781 C 607.371094 637.789062 610.863281 623.316406 614.417969 613.988281 C 618.265625 601.214844 621.179688 579.0625 618.816406 574.636719 C 618.785156 574.578125 618.742188 574.519531 618.726562 574.457031 C 609.941406 555.503906 582.820312 524.722656 574.261719 521.988281 C 567.796875 519.921875 562.652344 521.78125 554.941406 525.09375 C 546.125 528.867188 529.734375 536.8125 512.375 545.222656 C 486.933594 557.566406 458.085938 571.53125 444.398438 576.640625 C 442.601562 577.308594 440.59375 576.402344 439.925781 574.605469 C 439.777344 574.207031 439.71875 573.789062 439.71875 573.402344 " fill-opacity="1" fill-rule="nonzero"/><path fill="rgb(0%, 0%, 0%)" d="M 581.914062 603.828125 C 579.285156 605.492188 576.546875 606.875 573.652344 608.03125 C 570.960938 609.132812 572.640625 613.320312 575.34375 612.234375 C 578.585938 610.929688 581.660156 609.324219 584.605469 607.46875 C 587.085938 605.90625 584.367188 602.28125 581.914062 603.828125 " fill-opacity="1" fill-rule="nonzero"/><path fill="rgb(0%, 0%, 0%)" d="M 582.449219 631.859375 C 579.816406 633.523438 578.554688 634.5625 575.671875 635.722656 C 572.96875 636.808594 574.644531 641.011719 577.351562 639.910156 C 580.589844 638.605469 582.195312 637.355469 585.140625 635.5 C 587.605469 633.941406 584.902344 630.328125 582.449219 631.859375 " fill-opacity="1" fill-rule="nonzero"/><path fill="rgb(0%, 0%, 0%)" d="M 584.15625 612.324219 C 580.664062 614.195312 577.15625 616.070312 573.664062 617.941406 C 571.125 619.308594 572.789062 623.511719 575.34375 622.144531 C 578.851562 620.273438 582.34375 618.386719 585.835938 616.515625 C 588.378906 615.164062 586.730469 610.957031 584.15625 612.324219 " fill-opacity="1" fill-rule="nonzero"/><path fill="rgb(0%, 0%, 0%)" d="M 581.484375 622.472656 C 578.332031 624.328125 575.136719 626.082031 571.898438 627.746094 C 569.324219 629.082031 570.992188 633.269531 573.578125 631.949219 C 577.171875 630.105469 580.695312 628.144531 584.171875 626.109375 C 586.683594 624.625 583.949219 621 581.484375 622.472656 " fill-opacity="1" fill-rule="nonzero"/><path fill="rgb(0%, 0%, 0%)" d="M 582.910156 594.972656 C 579.773438 596.832031 576.578125 598.597656 573.339844 600.261719 C 570.765625 601.585938 572.433594 605.789062 575.019531 604.453125 C 578.613281 602.609375 582.136719 600.664062 585.613281 598.613281 C 588.109375 597.128906 585.390625 593.503906 582.910156 594.972656 " fill-opacity="1" fill-rule="nonzero"/><path fill="rgb(0%, 0%, 0%)" d="M 592.496094 630.6875 C 592.496094 620.066406 595.617188 614.433594 601.796875 613.929688 C 604.117188 613.738281 606.570312 614.492188 608.695312 616.054688 L 616.214844 621.578125 C 617.152344 622.261719 617.34375 623.570312 616.660156 624.492188 C 615.976562 625.414062 614.683594 625.621094 613.746094 624.9375 L 606.226562 619.410156 C 604.917969 618.445312 603.464844 617.96875 602.140625 618.074219 C 596.390625 618.550781 596.375 629.273438 596.878906 635.632812 C 597.027344 637.652344 599.125 640.285156 601.976562 642.007812 C 604.710938 643.683594 607.566406 644.191406 609.585938 643.34375 C 610.640625 642.898438 611.875 643.402344 612.304688 644.457031 C 612.75 645.527344 612.246094 646.746094 611.191406 647.175781 C 607.890625 648.558594 603.746094 647.964844 599.792969 645.558594 C 595.765625 643.105469 592.984375 639.332031 592.71875 635.960938 C 592.570312 634.089844 592.496094 632.320312 592.496094 630.6875 " fill-opacity="1" fill-rule="nonzero"/><path fill="rgb(0%, 0%, 0%)" d="M 536.851562 633.210938 C 536.019531 631.890625 533.628906 626.558594 531.828125 621.640625 C 530.835938 618.921875 526.851562 620.898438 527.757812 623.617188 C 529.109375 627.625 530.773438 631.457031 532.78125 635.1875 C 534.164062 637.742188 538.398438 635.691406 536.851562 633.210938 " fill-opacity="1" fill-rule="nonzero"/><path fill="rgb(0%, 0%, 0%)" d="M 543.941406 627.550781 C 542.097656 623.332031 540.40625 619.054688 538.859375 614.730469 C 537.863281 612 533.804688 613.988281 534.773438 616.691406 C 536.332031 621.03125 538.042969 625.292969 539.871094 629.511719 C 541.042969 632.1875 545.101562 630.210938 543.941406 627.550781 " fill-opacity="1" fill-rule="nonzero"/><path fill="rgb(0%, 0%, 0%)" d="M 550.824219 618.5625 C 549.394531 615.015625 547.597656 611.417969 546.558594 607.734375 C 545.785156 604.957031 541.328125 605.789062 542.128906 608.597656 C 543.257812 612.667969 545.175781 616.601562 546.75 620.523438 C 547.835938 623.242188 551.894531 621.253906 550.824219 618.5625 " fill-opacity="1" fill-rule="nonzero"/><path fill="rgb(0%, 0%, 0%)" d="M 556.21875 610.46875 L 551.714844 599.28125 C 550.628906 596.578125 546.558594 598.570312 547.644531 601.257812 L 552.144531 612.445312 C 553.230469 615.148438 557.289062 613.15625 556.21875 610.46875 " fill-opacity="1" fill-rule="nonzero"/><path fill="rgb(0%, 0%, 0%)" d="M 517.769531 647.175781 C 516.34375 643.640625 514.53125 640.046875 513.503906 636.363281 C 512.71875 633.570312 508.273438 634.414062 509.0625 637.222656 C 510.207031 641.277344 512.136719 645.230469 513.699219 649.152344 C 514.785156 651.855469 518.839844 649.863281 517.769531 647.175781 " fill-opacity="1" fill-rule="nonzero"/><path fill="rgb(0%, 0%, 0%)" d="M 527.535156 640.015625 L 523.03125 628.828125 C 521.945312 626.125 517.875 628.117188 518.960938 630.804688 C 520.460938 634.535156 521.960938 638.261719 523.449219 641.992188 C 524.546875 644.695312 528.605469 642.703125 527.535156 640.015625 " fill-opacity="1" fill-rule="nonzero"/><path fill="rgb(0%, 0%, 0%)" d="M 563.367188 603.695312 C 561.507812 600.011719 559.785156 596.25 558.222656 592.417969 C 557.125 589.730469 553.050781 591.707031 554.152344 594.394531 C 555.710938 598.210938 557.4375 601.972656 559.292969 605.667969 C 560.617188 608.253906 564.6875 606.292969 563.367188 603.695312 " fill-opacity="1" fill-rule="nonzero"/><path fill="rgb(0%, 0%, 0%)" d="M 477.925781 650.027344 C 477.925781 649.628906 478 649.210938 478.148438 648.808594 C 478.832031 647.011719 480.824219 646.105469 482.621094 646.789062 C 498.390625 652.71875 510.191406 662.359375 520.90625 678.03125 C 521.992188 679.605469 521.589844 681.761719 520 682.84375 C 518.425781 683.929688 516.269531 683.527344 515.183594 681.9375 C 505.183594 667.320312 494.71875 658.75 480.171875 653.265625 C 478.789062 652.746094 477.925781 651.425781 477.925781 650.027344 " fill-opacity="1" fill-rule="nonzero"/><path fill="rgb(0%, 0%, 0%)" d="M 569.519531 691.042969 C 567.4375 688.164062 565.269531 685.339844 562.996094 682.59375 C 561.019531 680.199219 557.601562 683.601562 559.5625 685.980469 C 561.582031 688.398438 563.515625 690.882812 565.34375 693.4375 C 567.140625 695.933594 571.332031 693.554688 569.519531 691.042969 " fill-opacity="1" fill-rule="nonzero"/><path fill="rgb(0%, 0%, 0%)" d="M 579.285156 692.085938 C 577.082031 689.410156 575.03125 686.648438 573.101562 683.765625 C 571.390625 681.210938 567.199219 683.585938 568.925781 686.15625 C 571.078125 689.378906 573.398438 692.46875 575.851562 695.457031 C 577.828125 697.847656 581.230469 694.445312 579.285156 692.085938 " fill-opacity="1" fill-rule="nonzero"/><path fill="rgb(0%, 0%, 0%)" d="M 591.648438 695.324219 C 589.449219 692.648438 587.398438 689.886719 585.480469 687.019531 C 583.769531 684.449219 579.582031 686.824219 581.304688 689.394531 C 583.460938 692.621094 585.777344 695.722656 588.230469 698.710938 C 590.191406 701.101562 593.609375 697.699219 591.648438 695.324219 " fill-opacity="1" fill-rule="nonzero"/><path fill="rgb(0%, 0%, 0%)" d="M 603.195312 696.71875 C 601.011719 694.046875 598.960938 691.28125 597.027344 688.398438 C 595.320312 685.84375 591.128906 688.222656 592.851562 690.792969 C 595.007812 694.015625 597.324219 697.105469 599.777344 700.089844 C 601.753906 702.5 605.15625 699.082031 603.195312 696.71875 " fill-opacity="1" fill-rule="nonzero"/><g clip-path="url(#clip-1)"><path fill="rgb(0%, 0%, 0%)" d="M 858.539062 632.113281 C 855.222656 631.726562 845.945312 632.664062 844.785156 633.496094 C 843.34375 634.535156 856.324219 636.273438 858.660156 635.335938 C 859.523438 634.996094 860.132812 634.25 860.132812 633.523438 C 860.132812 632.871094 859.398438 632.203125 858.539062 632.113281 " fill-opacity="1" fill-rule="nonzero"/></g><path fill="rgb(0%, 0%, 0%)" d="M 846.574219 564.640625 C 833.191406 566.898438 827.324219 568.351562 826.167969 569.71875 C 824.605469 571.5625 840.929688 570.34375 847.308594 568.128906 C 852.882812 566.214844 852.347656 563.671875 846.574219 564.640625 " fill-opacity="1" fill-rule="nonzero"/><path fill="rgb(0%, 0%, 0%)" d="M 837.917969 772.4375 C 835.089844 771.488281 832.144531 771.488281 832.144531 772.421875 C 832.144531 773.625 835.089844 775.304688 837.179688 775.304688 C 838.160156 775.304688 838.820312 772.734375 837.917969 772.4375 " fill-opacity="1" fill-rule="nonzero"/><path fill="rgb(0%, 0%, 0%)" d="M 832.878906 961.132812 C 827.71875 956.542969 826.613281 956.039062 826.613281 958.296875 C 826.613281 960.199219 834.222656 967.832031 836.191406 967.894531 C 838.996094 967.96875 837.789062 965.5 832.878906 961.132812 " fill-opacity="1" fill-rule="nonzero"/><path fill="rgb(0%, 0%, 0%)" d="M 811.769531 632.097656 C 798.632812 631.816406 762.296875 632.515625 761.796875 633.078125 C 760.535156 634.476562 763.757812 634.757812 783.777344 634.996094 C 813.613281 635.351562 818.15625 635.15625 818.15625 633.613281 C 818.15625 632.855469 815.335938 632.1875 811.769531 632.097656 " fill-opacity="1" fill-rule="nonzero"/><path fill="rgb(0%, 0%, 0%)" d="M 818.316406 420.761719 C 816.972656 420.761719 814.453125 421.996094 812.734375 423.496094 C 811.015625 424.996094 808.996094 426.246094 808.25 426.246094 C 807.53125 426.246094 806.898438 427.195312 806.898438 428.292969 C 806.898438 430.925781 807.148438 430.894531 812.917969 427.535156 C 819.300781 423.839844 821.742188 420.761719 818.316406 420.761719 " fill-opacity="1" fill-rule="nonzero"/><path fill="rgb(0%, 0%, 0%)" d="M 800.757812 930.5625 C 796.515625 925.984375 789.335938 918.734375 784.546875 914.203125 C 779.757812 909.660156 775.683594 905.675781 775.347656 905.21875 C 773.726562 903.035156 762.753906 894.402344 761.589844 894.402344 C 759.550781 894.402344 763.921875 899.335938 772.878906 907.164062 C 777.316406 911.027344 785.285156 918.796875 790.8125 924.632812 C 800.878906 935.269531 806.933594 940.484375 807.902344 939.324219 C 808.15625 939.027344 804.929688 935.078125 800.757812 930.5625 " fill-opacity="1" fill-rule="nonzero"/><path fill="rgb(0%, 0%, 0%)" d="M 809.789062 328.050781 C 806.476562 330.261719 797.753906 338.789062 797.753906 339.800781 C 797.753906 341.730469 801.492188 341.03125 802.207031 338.96875 C 802.601562 337.824219 804.757812 335.714844 807.089844 334.183594 C 809.417969 332.65625 811.265625 330.484375 811.265625 329.253906 C 811.265625 327.886719 810.710938 327.425781 809.789062 328.050781 " fill-opacity="1" fill-rule="nonzero"/><path fill="rgb(0%, 0%, 0%)" d="M 803.878906 501.308594 C 801.71875 501.816406 796.640625 503.761719 792.589844 505.648438 C 788.535156 507.535156 782.929688 509.867188 780.125 510.847656 C 777.296875 511.84375 773.222656 513.714844 770.976562 515.050781 C 763.777344 519.328125 770.238281 518.914062 779.324219 514.5 C 783.871094 512.289062 789.078125 510.03125 790.742188 509.554688 C 792.414062 509.0625 797.007812 507.386719 800.816406 505.855469 C 808.425781 502.824219 810.46875 499.78125 803.878906 501.308594 " fill-opacity="1" fill-rule="nonzero"/><path fill="rgb(0%, 0%, 0%)" d="M 825.996094 700.640625 C 824.257812 700.152344 818.933594 699.109375 814.027344 698.308594 C 809.109375 697.523438 803.410156 696.570312 801.191406 696.199219 C 798.738281 695.769531 797.203125 696.066406 797.203125 696.941406 C 797.203125 697.757812 799.230469 698.710938 801.808594 699.140625 C 804.332031 699.558594 809.847656 700.835938 814.027344 701.964844 C 822.496094 704.25 829.128906 704.609375 829.128906 702.765625 C 829.128906 702.097656 827.71875 701.132812 825.996094 700.640625 " fill-opacity="1" fill-rule="nonzero"/><path fill="rgb(0%, 0%, 0%)" d="M 800.871094 758.027344 C 798.144531 756.4375 793.503906 754.464844 790.433594 753.585938 C 787.386719 752.726562 781.40625 750.480469 777.113281 748.59375 C 772.816406 746.707031 768.984375 745.519531 768.578125 745.949219 C 767.300781 747.300781 769.929688 748.996094 778.765625 752.546875 C 783.5625 754.464844 790.574219 757.300781 794.609375 758.964844 C 803.695312 762.679688 807.808594 762.070312 800.871094 758.027344 " fill-opacity="1" fill-rule="nonzero"/><path fill="rgb(0%, 0%, 0%)" d="M 772.542969 363.285156 C 770.933594 364.238281 766.527344 368.160156 762.839844 371.886719 C 759.160156 375.617188 753.804688 380.800781 751.058594 383.28125 C 746.269531 387.605469 744.683594 390.382812 747.003906 390.382812 C 747.609375 390.382812 751.671875 386.964844 755.96875 382.851562 C 760.265625 378.722656 766.492188 372.765625 769.722656 369.675781 C 775.980469 363.6875 777.449219 360.375 772.542969 363.285156 " fill-opacity="1" fill-rule="nonzero"/><path fill="rgb(0%, 0%, 0%)" d="M 766.203125 579.984375 C 763.824219 579.984375 757.667969 580.847656 752.390625 581.902344 C 747.109375 582.96875 739.375 584.457031 735.015625 585.257812 C 730.722656 586.046875 726.890625 587.011719 726.5625 587.382812 C 724.578125 589.671875 728.882812 589.820312 739.5625 587.828125 C 746.0625 586.609375 755.480469 584.902344 760.3125 584.054688 C 769.890625 582.375 773.351562 579.984375 766.203125 579.984375 " fill-opacity="1" fill-rule="nonzero"/><path fill="rgb(0%, 0%, 0%)" d="M 771.121094 814.257812 C 769.890625 812.890625 768.257812 811.863281 767.3125 811.863281 C 766.421875 811.863281 764.96875 810.898438 764.183594 809.816406 C 763.371094 808.671875 761.597656 807.75 760.253906 807.75 C 758.164062 807.75 758.015625 808.0625 759.265625 809.816406 C 760.054688 810.898438 761.375 811.863281 762.09375 811.863281 C 762.828125 811.863281 764.671875 813.171875 766.144531 814.730469 C 767.613281 816.304688 769.847656 817.390625 771.058594 817.136719 C 773.148438 816.679688 773.148438 816.53125 771.121094 814.257812 " fill-opacity="1" fill-rule="nonzero"/><path fill="rgb(0%, 0%, 0%)" d="M 762.898438 456.742188 C 760.863281 456.742188 751.96875 461.898438 747.429688 465.699219 C 745.402344 467.410156 740.921875 470.367188 737.480469 472.296875 C 730.726562 476.054688 726.820312 480.035156 729.867188 480.035156 C 730.796875 480.035156 734.105469 478.269531 737.050781 476.203125 C 740.085938 474.066406 746.441406 470.039062 751.359375 467.15625 C 759.949219 462.089844 765.882812 456.742188 762.898438 456.742188 " fill-opacity="1" fill-rule="nonzero"/><path fill="rgb(0%, 0%, 0%)" d="M 739.046875 793.578125 C 735.851562 791.320312 732.671875 789.476562 731.921875 789.476562 C 731.175781 789.476562 727.625 787.351562 723.941406 784.695312 C 716.824219 779.570312 714.84375 778.8125 715.59375 781.53125 C 715.867188 782.511719 718.601562 784.855469 721.671875 786.730469 C 724.777344 788.644531 730.203125 792.136719 733.890625 794.617188 C 739.785156 798.570312 744.816406 800.292969 744.816406 798.375 C 744.816406 798.003906 742.238281 795.867188 739.046875 793.578125 " fill-opacity="1" fill-rule="nonzero"/><path fill="rgb(0%, 0%, 0%)" d="M 734.070312 731.273438 C 732.054688 730.070312 726.214844 727.679688 721.175781 726 C 716.144531 724.304688 709.738281 721.765625 707.0625 720.382812 C 704.359375 718.988281 700.761719 717.875 699.070312 717.917969 L 696.007812 717.976562 L 699.453125 720.042969 C 701.34375 721.171875 706.558594 723.535156 711.105469 725.316406 C 715.65625 727.085938 722.582031 729.863281 726.582031 731.496094 C 734.929688 734.929688 739.933594 734.765625 734.070312 731.273438 " fill-opacity="1" fill-rule="nonzero"/><path fill="rgb(0%, 0%, 0%)" d="M 736.675781 869.027344 C 733.726562 866.160156 731.152344 865.136719 731.152344 866.816406 C 731.152344 868.046875 737.691406 875.582031 738.761719 875.582031 C 740.796875 875.582031 739.621094 871.882812 736.675781 869.027344 " fill-opacity="1" fill-rule="nonzero"/><path fill="rgb(0%, 0%, 0%)" d="M 726.832031 406.960938 C 725.359375 406.960938 703.867188 427.078125 703.867188 428.457031 C 703.867188 430.464844 708.28125 428.191406 711.605469 424.492188 C 713.867188 421.964844 717.5 418.5625 719.835938 416.78125 C 725.234375 412.667969 729.304688 406.960938 726.832031 406.960938 " fill-opacity="1" fill-rule="nonzero"/><path fill="rgb(0%, 0%, 0%)" d="M 728.234375 681.820312 C 724.554688 680.542969 719.585938 679.457031 717.183594 679.425781 C 714.789062 679.382812 709.515625 678.476562 705.460938 677.390625 C 696.867188 675.105469 693.792969 674.941406 693.792969 676.753906 C 693.792969 677.421875 696.734375 678.625 700.300781 679.398438 C 722.773438 684.253906 727.972656 685.148438 731.246094 684.6875 C 734.628906 684.195312 734.378906 683.957031 728.234375 681.820312 " fill-opacity="1" fill-rule="nonzero"/><path fill="rgb(0%, 0%, 0%)" d="M 686.273438 821.59375 C 679.761719 815.371094 671.292969 807.585938 667.605469 804.453125 C 663.859375 801.257812 656.800781 794.722656 651.765625 789.789062 C 646.742188 784.855469 642.191406 780.890625 641.582031 780.890625 C 638.820312 780.890625 641.332031 784.277344 649.429688 791.511719 C 654.351562 795.878906 662.703125 803.695312 668.214844 809.085938 C 678.664062 819.277344 696.929688 835.679688 697.820312 835.679688 C 700.050781 835.679688 696.585938 831.460938 686.273438 821.59375 " fill-opacity="1" fill-rule="nonzero"/><path fill="rgb(0%, 0%, 0%)" d="M 698.785156 351.953125 C 697.300781 351.953125 694.121094 355.917969 694.046875 357.847656 C 693.984375 359.691406 696.839844 358.800781 698.429688 356.484375 C 700.464844 353.453125 700.585938 351.953125 698.785156 351.953125 " fill-opacity="1" fill-rule="nonzero"/><path fill="rgb(0%, 0%, 0%)" d="M 691.042969 762.753906 C 688.886719 761.132812 683.789062 757.878906 679.75 755.503906 C 675.691406 753.140625 670 749.621094 667.101562 747.703125 C 664.144531 745.757812 661.4375 744.628906 660.964844 745.164062 C 660.011719 746.234375 665.140625 750.898438 668.691406 752.203125 C 670.042969 752.710938 674.339844 755.53125 678.277344 758.503906 C 684.535156 763.226562 692.410156 767.773438 694.355469 767.773438 C 696.171875 767.773438 694.59375 765.398438 691.042969 762.753906 " fill-opacity="1" fill-rule="nonzero"/><g clip-path="url(#clip-2)"><path fill="rgb(0%, 0%, 0%)" d="M 725.507812 176.195312 C 724.765625 176.710938 722.703125 180.003906 720.902344 183.566406 C 719.105469 187.128906 716.097656 192.699219 714.179688 196.03125 C 710.15625 203.015625 709.339844 207.335938 712.621094 204.28125 C 713.796875 203.179688 715.425781 200.550781 716.363281 198.222656 C 717.277344 195.96875 719.652344 191.648438 721.640625 188.632812 C 725.4375 182.882812 728.066406 174.433594 725.507812 176.195312 " fill-opacity="1" fill-rule="nonzero"/></g><path fill="rgb(0%, 0%, 0%)" d="M 686.480469 445.257812 C 685.367188 445.257812 680.519531 449.121094 675.734375 453.816406 C 670.949219 458.527344 665.078125 464.125 662.71875 466.265625 C 658.675781 469.933594 657.011719 473.382812 659.773438 472.355469 C 661.527344 471.71875 674.265625 460.039062 682.246094 451.75 C 686.300781 447.546875 687.789062 445.257812 686.480469 445.257812 " fill-opacity="1" fill-rule="nonzero"/><path fill="rgb(0%, 0%, 0%)" d="M 674.695312 382.910156 C 673.863281 383.222656 670.847656 386.742188 667.875 390.859375 C 664.960938 394.898438 659.820312 401.6875 656.5625 405.789062 C 648.109375 416.46875 650.707031 417.613281 659.402344 407.019531 C 673.671875 389.625 678.960938 381.292969 674.695312 382.910156 " fill-opacity="1" fill-rule="nonzero"/><path fill="rgb(0%, 0%, 0%)" d="M 672.824219 983.699219 C 670.398438 979.449219 668.039062 977.832031 668.039062 980.414062 C 668.039062 983.148438 672.09375 990.132812 673.683594 990.132812 C 675.972656 990.132812 675.808594 988.898438 672.824219 983.699219 " fill-opacity="1" fill-rule="nonzero"/><path fill="rgb(0%, 0%, 0%)" d="M 698.609375 226.882812 C 697.269531 228.238281 695.128906 231.949219 693.882812 235.101562 C 692.632812 238.253906 690.328125 242.621094 688.785156 244.761719 C 687.207031 246.953125 685.960938 249.898438 685.960938 251.472656 C 685.960938 254.210938 686.019531 254.222656 688.414062 251.8125 C 689.765625 250.460938 690.878906 248.675781 690.878906 247.847656 C 690.878906 247.027344 692.8125 243.117188 695.117188 239.28125 C 697.417969 235.445312 699.738281 230.449219 700.214844 228.324219 C 701.046875 224.488281 701.015625 224.464844 698.609375 226.882812 " fill-opacity="1" fill-rule="nonzero"/><path fill="rgb(0%, 0%, 0%)" d="M 659.359375 859.550781 C 655.417969 855.421875 652.746094 855.75 656.132812 859.953125 C 657.246094 861.320312 658.125 863.085938 658.125 863.917969 C 658.125 865.09375 660.828125 866.917969 662.554688 866.917969 C 664.277344 866.917969 662.554688 862.921875 659.359375 859.550781 " fill-opacity="1" fill-rule="nonzero"/><path fill="rgb(0%, 0%, 0%)" d="M 653.710938 947.734375 C 650.828125 942.800781 647.484375 936.769531 646.339844 934.453125 C 645.195312 932.121094 643.632812 930.203125 642.90625 930.203125 C 640.886719 930.203125 641.359375 932.121094 644.75 937.734375 C 646.441406 940.542969 649.179688 945.683594 650.886719 949.25 C 654.199219 956.230469 656.890625 960.347656 658.125 960.347656 C 660.054688 960.347656 658.511719 955.949219 653.710938 947.734375 " fill-opacity="1" fill-rule="nonzero"/><path fill="rgb(0%, 0%, 0%)" d="M 637.242188 829.78125 C 634.507812 825.664062 629.679688 819.234375 626.515625 815.460938 C 623.304688 811.65625 617.625 804.230469 613.734375 798.746094 C 607.59375 790.117188 604.28125 786.890625 604.28125 789.566406 C 604.28125 790.738281 610.507812 799.714844 615.589844 805.863281 C 618.101562 808.910156 622.828125 815.324219 626.203125 820.257812 C 632.753906 829.839844 640.738281 838.992188 641.644531 837.921875 C 641.953125 837.550781 639.992188 833.878906 637.242188 829.78125 " fill-opacity="1" fill-rule="nonzero"/><path fill="rgb(0%, 0%, 0%)" d="M 638.597656 344.746094 C 637.644531 345.101562 636.039062 347.167969 635.03125 349.351562 C 634.019531 351.550781 632.769531 353.542969 632.265625 353.808594 C 631.773438 354.0625 631.34375 355.515625 631.34375 356.882812 C 631.34375 360.761719 632.828125 360.035156 635.890625 354.699219 C 639.578125 348.253906 640.75 343.945312 638.597656 344.746094 " fill-opacity="1" fill-rule="nonzero"/><path fill="rgb(0%, 0%, 0%)" d="M 629.277344 443.90625 C 628.609375 443.90625 625.890625 446.789062 623.199219 450.355469 C 609.4375 468.566406 607.058594 471.894531 607.058594 472.949219 C 607.058594 475.503906 609.601562 473.765625 612.886719 468.984375 C 614.742188 466.28125 618.875 460.753906 622.027344 456.789062 C 628.429688 448.707031 631.136719 443.90625 629.277344 443.90625 " fill-opacity="1" fill-rule="nonzero"/><path fill="rgb(0%, 0%, 0%)" d="M 618.53125 381.839844 C 617.003906 383.328125 614.890625 386.773438 613.925781 389.371094 C 612.960938 391.972656 611.074219 395.671875 609.808594 397.453125 C 608.546875 399.238281 607.476562 401.628906 607.476562 402.667969 C 607.476562 405.890625 609.941406 404.71875 611.503906 400.738281 C 612.335938 398.628906 614.476562 394.4375 616.257812 391.421875 C 618.058594 388.421875 619.929688 384.410156 620.433594 382.523438 L 621.355469 379.09375 L 618.53125 381.839844 " fill-opacity="1" fill-rule="nonzero"/><path fill="rgb(0%, 0%, 0%)" d="M 633.675781 208.601562 C 632.207031 210.234375 629.410156 217.914062 626.140625 229.285156 C 624.984375 233.273438 628.105469 232.027344 629.546875 227.914062 C 630.273438 225.851562 631.878906 221.617188 633.1875 218.328125 C 634.480469 215.035156 635.519531 211.136719 635.519531 209.488281 C 635.519531 206.886719 635.296875 206.785156 633.675781 208.601562 " fill-opacity="1" fill-rule="nonzero"/><path fill="rgb(0%, 0%, 0%)" d="M 609.855469 1004.050781 C 607.429688 996.933594 603.878906 985.957031 602.023438 979.808594 C 598.128906 967.074219 594.605469 958.875 593.953125 961.042969 C 593.714844 961.785156 594.574219 965.769531 595.867188 969.882812 C 597.148438 974 600.699219 985.421875 603.773438 995.417969 C 609.15625 1012.816406 612.574219 1021.863281 613.792969 1021.863281 C 615.203125 1021.863281 613.925781 1016.113281 609.855469 1004.050781 " fill-opacity="1" fill-rule="nonzero"/><path fill="rgb(0%, 0%, 0%)" d="M 618.148438 256.324219 C 616.808594 256.324219 612.664062 266.734375 607.699219 282.488281 C 604.992188 291.117188 601.367188 301.96875 599.585938 306.734375 C 596.0625 316.1875 595.808594 323.148438 599.242188 315.914062 C 600.328125 313.640625 602.867188 306.597656 604.949219 300.15625 C 606.984375 293.796875 610.671875 283.171875 613.050781 276.738281 C 617.402344 264.953125 619.558594 256.324219 618.148438 256.324219 " fill-opacity="1" fill-rule="nonzero"/><path fill="rgb(0%, 0%, 0%)" d="M 585.125 927.246094 C 584.203125 925.882812 583.339844 923.503906 583.3125 922.242188 C 583.265625 920.875 582.402344 919.851562 581.273438 919.851562 C 579.921875 919.851562 579.582031 920.609375 580.175781 922.242188 C 580.652344 923.5625 581.320312 925.882812 581.675781 927.382812 C 582.582031 931.214844 584.5 933.726562 585.824219 932.804688 C 587.425781 931.691406 587.265625 930.398438 585.125 927.246094 " fill-opacity="1" fill-rule="nonzero"/><path fill="rgb(0%, 0%, 0%)" d="M 555.609375 230.621094 C 554.136719 230.621094 551 244.59375 549.308594 258.703125 C 548.59375 264.730469 547.195312 273.050781 546.199219 277.195312 C 544.195312 285.550781 543.675781 297.054688 545.457031 293.636719 C 546.050781 292.5 547.183594 287.605469 548 282.675781 C 548.816406 277.753906 550.480469 268.566406 551.746094 262.125 C 553.007812 255.691406 554.34375 248.039062 554.761719 245.003906 C 555.164062 241.988281 555.773438 237.519531 556.113281 235.074219 C 556.441406 232.605469 556.234375 230.621094 555.609375 230.621094 " fill-opacity="1" fill-rule="nonzero"/><path fill="rgb(0%, 0%, 0%)" d="M 568.449219 877.214844 C 566.917969 872.699219 563.917969 864.273438 561.789062 858.511719 C 559.664062 852.761719 557.910156 847.355469 557.910156 846.523438 C 557.910156 843.789062 551.507812 829.363281 550.988281 830.910156 C 550.675781 831.816406 551.894531 837.074219 553.675781 842.554688 C 555.476562 848.066406 558.820312 858.585938 561.136719 865.984375 C 565.296875 879.265625 569.667969 890.226562 570.8125 890.226562 C 572.058594 890.226562 571.125 885.027344 568.449219 877.214844 " fill-opacity="1" fill-rule="nonzero"/><path fill="rgb(0%, 0%, 0%)" d="M 575.449219 380.148438 C 574.246094 380.148438 569.90625 390.828125 568.492188 397.261719 C 567.988281 399.5625 566.324219 404.390625 564.703125 408.226562 C 563.082031 412.058594 561.820312 416.277344 561.820312 417.804688 C 561.820312 422.457031 564.984375 417.40625 567.410156 408.90625 C 568.582031 404.808594 569.964844 400.753906 570.457031 400.007812 C 571.613281 398.226562 576.546875 383.265625 576.546875 381.515625 C 576.546875 380.699219 576.117188 380.148438 575.449219 380.148438 " fill-opacity="1" fill-rule="nonzero"/><path fill="rgb(0%, 0%, 0%)" d="M 522.792969 848.707031 C 521.160156 838.574219 519.210938 826.511719 518.515625 821.996094 C 517.800781 817.480469 516.699219 813.171875 516.046875 812.414062 C 514.367188 810.4375 514.785156 819.398438 516.820312 829.125 C 517.785156 833.730469 518.929688 841.722656 519.359375 846.9375 C 520.148438 856.386719 524.503906 880.214844 525.453125 880.214844 C 526.761719 880.214844 525.527344 865.566406 522.792969 848.707031 " fill-opacity="1" fill-rule="nonzero"/><path fill="rgb(0%, 0%, 0%)" d="M 488.449219 217.316406 C 487.824219 216.898438 487.050781 217.652344 486.710938 219.023438 C 485.699219 222.996094 486.53125 234.382812 487.824219 234.386719 C 489.429688 234.398438 490.007812 218.382812 488.449219 217.316406 " fill-opacity="1" fill-rule="nonzero"/><path fill="rgb(0%, 0%, 0%)" d="M 488.476562 256.984375 C 487.78125 256.539062 487.066406 256.671875 486.710938 257.332031 C 485.640625 259.246094 486.160156 275.390625 487.320312 276.199219 C 488.550781 277.066406 488.539062 277.195312 489.160156 266.234375 C 489.429688 261.574219 489.117188 257.402344 488.476562 256.984375 " fill-opacity="1" fill-rule="nonzero"/><path fill="rgb(0%, 0%, 0%)" d="M 487.792969 292.121094 C 486.664062 292.121094 485.953125 293.492188 485.953125 295.683594 C 485.953125 299.96875 488.625 299.519531 489.222656 295.140625 C 489.488281 293.21875 488.96875 292.121094 487.792969 292.121094 " fill-opacity="1" fill-rule="nonzero"/><path fill="rgb(0%, 0%, 0%)" d="M 487.46875 878.210938 C 486.710938 860.144531 484.671875 863.828125 484.671875 883.273438 C 484.671875 901.902344 485.355469 907.414062 487.289062 904.101562 C 488.328125 902.289062 488.359375 899.171875 487.46875 878.210938 " fill-opacity="1" fill-rule="nonzero"/><path fill="rgb(0%, 0%, 0%)" d="M 487.183594 968.679688 C 485.714844 967.65625 485.714844 967.65625 485.269531 976.285156 C 484.808594 985.183594 485.582031 990.457031 487.183594 989.328125 C 488.671875 988.320312 488.671875 969.703125 487.183594 968.679688 " fill-opacity="1" fill-rule="nonzero"/><path fill="rgb(0%, 0%, 0%)" d="M 487.347656 1020.734375 C 485.730469 1019.605469 485.179688 1021.238281 485.296875 1026.71875 C 485.445312 1033.703125 488.449219 1033.96875 488.449219 1027.003906 C 488.449219 1023.972656 487.957031 1021.164062 487.347656 1020.734375 " fill-opacity="1" fill-rule="nonzero"/><path fill="rgb(0%, 0%, 0%)" d="M 453.242188 406.472656 C 452.335938 401.96875 450.460938 389.894531 449.109375 379.761719 C 446.792969 362.5 443.550781 345.757812 442.257812 344.332031 C 440.578125 342.519531 442.019531 357.984375 445.171875 375.511719 C 447.148438 386.476562 449.644531 401.585938 450.699219 408.9375 C 452.957031 424.550781 455.054688 430.433594 454.964844 420.851562 C 454.921875 417.464844 454.148438 410.988281 453.242188 406.472656 " fill-opacity="1" fill-rule="nonzero"/><path fill="rgb(0%, 0%, 0%)" d="M 411.167969 394.660156 C 410.214844 391.273438 408.121094 384.8125 406.5 380.28125 C 404.867188 375.734375 402.070312 366.851562 400.246094 360.417969 C 396.230469 346.308594 392.234375 335.757812 390.894531 335.757812 C 389.453125 335.757812 393.082031 349.738281 398.34375 364.386719 C 400.941406 371.648438 403.707031 380.25 404.496094 383.566406 C 406.175781 390.5625 411.390625 404.257812 412.386719 404.257812 C 413.441406 404.257812 413.101562 401.523438 411.167969 394.660156 " fill-opacity="1" fill-rule="nonzero"/><path fill="rgb(0%, 0%, 0%)" d="M 441.054688 928.941406 C 439.613281 928.941406 439.554688 929.074219 437.382812 939.757812 C 436.3125 944.96875 436.285156 947.453125 437.25 948.519531 C 438.929688 950.394531 440.445312 946.054688 441.574219 936.207031 C 442.125 931.40625 441.945312 928.941406 441.054688 928.941406 " fill-opacity="1" fill-rule="nonzero"/><path fill="rgb(0%, 0%, 0%)" d="M 383.894531 839.527344 C 382.886719 839.527344 372.378906 858.972656 367.609375 869.652344 C 366.09375 873.054688 360.875 883.214844 356.015625 892.261719 C 345.6875 911.441406 337.765625 928.480469 338.703125 929.519531 C 339.148438 930.011719 339.609375 930.113281 339.875 929.804688 C 341.660156 927.5 356.046875 899.660156 360.265625 890.347656 C 363.121094 884.046875 368.144531 874.066406 371.367188 868.285156 C 376.898438 858.421875 384.878906 841.828125 384.878906 840.210938 C 384.878906 839.792969 384.476562 839.527344 383.894531 839.527344 " fill-opacity="1" fill-rule="nonzero"/><path fill="rgb(0%, 0%, 0%)" d="M 436.179688 300.164062 C 435.628906 297.519531 434.546875 290.921875 433.773438 285.4375 C 432.984375 279.957031 431.855469 275.507812 431.246094 275.507812 C 429.597656 275.507812 429.9375 284.6875 431.914062 293.175781 C 432.910156 297.425781 434.039062 303.757812 434.441406 307.355469 C 434.84375 310.917969 435.675781 314.195312 436.285156 314.597656 C 437.695312 315.53125 437.636719 307.011719 436.179688 300.164062 " fill-opacity="1" fill-rule="nonzero"/><path fill="rgb(0%, 0%, 0%)" d="M 434.558594 969.332031 C 432.226562 970.195312 428.808594 993.59375 431.007812 993.59375 C 431.765625 993.59375 432.65625 991.335938 433.027344 988.453125 C 433.402344 985.644531 434.246094 980.710938 434.902344 977.5625 C 436.492188 969.898438 436.449219 968.648438 434.558594 969.332031 " fill-opacity="1" fill-rule="nonzero"/><path fill="rgb(0%, 0%, 0%)" d="M 418.019531 844.578125 C 417.082031 843.566406 413.441406 853 407.972656 870.53125 C 405.371094 878.894531 401.910156 889.261719 400.183594 893.824219 C 397.40625 901.222656 387.078125 933.679688 387.078125 935.046875 C 387.078125 935.375 387.523438 935.597656 388.175781 935.597656 C 389.46875 935.597656 397.808594 912.453125 403.515625 892.992188 C 405.816406 885.191406 409.207031 874.734375 411.019531 869.847656 C 415.300781 858.332031 418.867188 845.484375 418.019531 844.578125 " fill-opacity="1" fill-rule="nonzero"/><path fill="rgb(0%, 0%, 0%)" d="M 379.4375 296.089844 C 378.101562 292.804688 376.4375 287.660156 375.679688 284.449219 C 373.746094 276.226562 369.539062 265.683594 368.1875 265.683594 C 366.761719 265.683594 368.023438 271.296875 371.710938 281.4375 C 373.359375 285.953125 375.828125 293.351562 377.207031 297.871094 C 378.589844 302.390625 380.210938 306.648438 380.804688 307.324219 C 382.871094 309.714844 381.980469 302.261719 379.4375 296.089844 " fill-opacity="1" fill-rule="nonzero"/><path fill="rgb(0%, 0%, 0%)" d="M 356.59375 225.515625 C 354.871094 220.636719 352.09375 211.402344 350.429688 205.101562 C 347.484375 193.871094 341.824219 179.453125 340.8125 180.582031 C 340.007812 181.476562 344.453125 197.707031 348.6875 209.347656 C 350.785156 215.105469 352.480469 220.375 352.480469 221.128906 C 352.480469 223.867188 357.8125 237.839844 358.855469 237.839844 C 360.488281 237.839844 359.984375 235.101562 356.59375 225.515625 " fill-opacity="1" fill-rule="nonzero"/><path fill="rgb(0%, 0%, 0%)" d="M 375.929688 969.140625 C 374.996094 971.117188 372.839844 977.355469 371.203125 982.835938 C 369.570312 988.320312 366.789062 996.398438 365.109375 1000.574219 C 361.410156 1009.753906 357.949219 1023.734375 359.359375 1023.734375 C 360.546875 1023.734375 367.160156 1006.324219 369.140625 997.976562 C 369.898438 994.765625 372.171875 987.488281 374.148438 982.003906 C 376.125 976.539062 377.742188 970.476562 377.714844 968.722656 C 377.65625 965.558594 377.609375 965.574219 375.929688 969.140625 " fill-opacity="1" fill-rule="nonzero"/><g clip-path="url(#clip-3)"><path fill="rgb(0%, 0%, 0%)" d="M 320.40625 965.679688 C 319.234375 965.679688 310.804688 980.757812 305.933594 991.574219 C 304.105469 995.628906 297.789062 1008.015625 291.933594 1018.964844 C 281.839844 1037.878906 269.699219 1063.011719 269.699219 1065.003906 C 269.699219 1069.015625 283.726562 1043.894531 293.179688 1022.945312 C 296.035156 1016.617188 301.296875 1006.085938 305.023438 999.253906 C 310.390625 989.375 318.609375 972.75 321.121094 966.644531 C 321.359375 966.066406 321.074219 965.679688 320.40625 965.679688 " fill-opacity="1" fill-rule="nonzero"/></g><path fill="rgb(0%, 0%, 0%)" d="M 365.082031 398.570312 C 362.660156 394.125 358.496094 385.761719 355.824219 380 C 353.164062 374.25 349.820312 368.382812 348.390625 366.984375 C 345.820312 364.460938 345.820312 364.460938 346.742188 367.878906 C 347.738281 371.53125 350.753906 377.875 356.847656 389.105469 C 358.929688 392.953125 362.019531 398.820312 363.863281 402.476562 C 365.691406 406.027344 367.742188 408.980469 368.410156 408.980469 C 370.3125 408.980469 369.703125 407.050781 365.082031 398.570312 " fill-opacity="1" fill-rule="nonzero"/><path fill="rgb(0%, 0%, 0%)" d="M 326.917969 324.414062 C 324.777344 320.171875 322.441406 315.890625 321.699219 314.828125 C 320.957031 313.765625 316.363281 304.964844 311.429688 295.105469 C 301.234375 274.691406 295.1875 264.5 294.546875 266.609375 C 293.984375 268.445312 301.21875 283.597656 309.453125 297.84375 C 312.945312 303.867188 317.851562 313.117188 320.332031 318.390625 C 325.328125 328.941406 331.003906 337.421875 330.871094 334.140625 C 330.824219 333.011719 329.058594 328.660156 326.917969 324.414062 " fill-opacity="1" fill-rule="nonzero"/><path fill="rgb(0%, 0%, 0%)" d="M 313.109375 468.152344 C 310.136719 465.449219 302.855469 459.132812 296.71875 453.964844 C 290.578125 448.796875 282.941406 441.753906 279.523438 438.128906 C 271.050781 429.140625 255.269531 414.925781 253.738281 414.925781 C 251.730469 414.925781 266.519531 430.910156 276.953125 440.015625 C 282.226562 444.636719 290.460938 451.988281 294.992188 456.179688 C 307.640625 467.824219 315.605469 474.066406 317.109375 473.515625 C 317.851562 473.234375 316.050781 470.824219 313.109375 468.152344 " fill-opacity="1" fill-rule="nonzero"/><path fill="rgb(0%, 0%, 0%)" d="M 301.042969 383.105469 C 299.675781 381.574219 298.054688 379.195312 297.253906 377.5625 C 295.46875 373.863281 291.039062 371.128906 291.039062 373.714844 C 291.039062 376.464844 301.753906 388.824219 302.675781 387.144531 C 303.109375 386.371094 302.394531 384.621094 301.042969 383.105469 " fill-opacity="1" fill-rule="nonzero"/><path fill="rgb(0%, 0%, 0%)" d="M 284.886719 251.164062 C 284.21875 250.71875 283.535156 250.878906 283.164062 251.582031 C 282.835938 252.203125 283.417969 252.746094 284.398438 252.746094 C 286.476562 252.746094 286.613281 252.332031 284.886719 251.164062 " fill-opacity="1" fill-rule="nonzero"/><path fill="rgb(0%, 0%, 0%)" d="M 269.550781 491.921875 C 265.253906 489.46875 258.476562 484.894531 254.332031 481.625 C 246.21875 475.238281 238.519531 471.433594 239.367188 474.226562 C 239.960938 476.203125 273.234375 498.621094 275.570312 498.621094 C 279.105469 498.621094 276.789062 496.035156 269.550781 491.921875 " fill-opacity="1" fill-rule="nonzero"/><path fill="rgb(0%, 0%, 0%)" d="M 240.242188 868.285156 C 239.425781 868.285156 236.988281 869.964844 234.773438 872.042969 C 232.574219 874.140625 229.601562 876.886719 228.144531 878.210938 C 226.675781 879.546875 225.515625 881.210938 225.515625 881.984375 C 225.515625 883.945312 232.84375 879.652344 233.6875 877.183594 C 234.03125 876.175781 235.457031 874.882812 236.675781 874.4375 C 239.5 873.425781 242.488281 868.285156 240.242188 868.285156 " fill-opacity="1" fill-rule="nonzero"/><path fill="rgb(0%, 0%, 0%)" d="M 225.1875 387.234375 C 221.488281 383.996094 213.894531 377.042969 208.378906 371.800781 C 195.359375 359.46875 190.308594 355.472656 189.207031 356.691406 C 188.210938 357.804688 198.183594 368.085938 206.164062 374.132812 C 209.226562 376.464844 213.863281 380.578125 216.597656 383.402344 C 224.328125 391.394531 230.433594 396.011719 231.222656 394.5 C 231.625 393.742188 228.875 390.441406 225.1875 387.234375 " fill-opacity="1" fill-rule="nonzero"/><path fill="rgb(0%, 0%, 0%)" d="M 229.394531 798.539062 C 228.53125 798.539062 225.960938 799.964844 223.507812 801.824219 C 221.144531 803.605469 216.570312 806.457031 213.492188 808.0625 C 210.429688 809.652344 206.820312 812.308594 205.585938 813.871094 C 203.3125 816.753906 203.3125 816.753906 206.015625 816.007812 C 209.570312 815.015625 230.925781 800.976562 230.925781 799.625 C 230.925781 799.015625 230.257812 798.539062 229.394531 798.539062 " fill-opacity="1" fill-rule="nonzero"/><path fill="rgb(0%, 0%, 0%)" d="M 210.253906 895.785156 C 209.570312 895.785156 204.351562 900.285156 198.46875 905.976562 C 197.234375 907.164062 196.253906 908.722656 196.253906 909.480469 C 196.253906 912.019531 198.824219 910.847656 203 906.390625 C 205.332031 903.910156 207.992188 901.191406 209.019531 900.226562 C 210.980469 898.414062 211.707031 895.785156 210.253906 895.785156 " fill-opacity="1" fill-rule="nonzero"/><path fill="rgb(0%, 0%, 0%)" d="M 164.9375 331.496094 C 157.9375 325.257812 155.960938 327.515625 162.722656 334.019531 C 165.667969 336.859375 168.566406 339.25 169.113281 339.265625 C 171.476562 339.382812 169.351562 335.449219 164.9375 331.496094 " fill-opacity="1" fill-rule="nonzero"/><path fill="rgb(100%, 100%, 100%)" d="M 812.503906 1204.527344 C 812.503906 1203.25 811.511719 1202.199219 810.269531 1202.199219 L 395.460938 1202.199219 L 395.460938 1202.214844 C 394.265625 1202.265625 393.320312 1203.28125 393.320312 1204.527344 C 393.320312 1205.773438 394.28125 1206.792969 395.460938 1206.839844 L 395.460938 1206.859375 L 810.269531 1206.859375 C 811.496094 1206.859375 812.503906 1205.808594 812.503906 1204.527344 Z M 812.503906 1204.527344 " fill-opacity="1" fill-rule="nonzero"/><path fill="rgb(100%, 100%, 100%)" d="M 360.886719 1204.527344 C 360.886719 1203.25 359.898438 1202.199219 358.65625 1202.199219 L 265.957031 1202.199219 L 265.957031 1202.214844 C 264.757812 1202.265625 263.816406 1203.28125 263.816406 1204.527344 C 263.816406 1205.773438 264.777344 1206.792969 265.957031 1206.839844 L 265.957031 1206.859375 L 358.65625 1206.859375 C 359.882812 1206.859375 360.886719 1205.808594 360.886719 1204.527344 Z M 360.886719 1204.527344 " fill-opacity="1" fill-rule="nonzero"/><path fill="rgb(100%, 100%, 100%)" d="M 224.742188 1204.527344 C 224.742188 1203.25 223.761719 1202.199219 222.527344 1202.199219 L 197.207031 1202.199219 L 197.207031 1202.214844 C 196.019531 1202.265625 195.085938 1203.28125 195.085938 1204.527344 C 195.085938 1205.773438 196.035156 1206.792969 197.207031 1206.839844 L 197.207031 1206.859375 L 222.527344 1206.859375 C 223.746094 1206.859375 224.742188 1205.808594 224.742188 1204.527344 Z M 224.742188 1204.527344 " fill-opacity="1" fill-rule="nonzero"/></svg>